<svg width="33" height="33" viewBox="0 0 33 33" fill="none" xmlns="http://www.w3.org/2000/svg">
<g id="download (3) 1" clip-path="url(#clip0_1_364)">
<g id="d">
<g id="Group 14203">
<path id="Path 1364" d="M8.82203 19.5618H28.072C28.1885 19.5615 28.3015 19.5221 28.3928 19.4497C28.4841 19.3774 28.5484 19.2764 28.5753 19.163L30.9197 9.20117H6.80078" stroke="#2D2D2D" stroke-width="1.5"/>
<path id="Ellipse 21" d="M12.0262 28.859C12.5972 28.859 13.0602 28.3961 13.0602 27.825C13.0602 27.254 12.5972 26.791 12.0262 26.791C11.4551 26.791 10.9922 27.254 10.9922 27.825C10.9922 28.3961 11.4551 28.859 12.0262 28.859Z" stroke="#2D2D2D" stroke-width="1.5"/>
<path id="Ellipse 22" d="M24.7293 28.859C25.3004 28.859 25.7633 28.3961 25.7633 27.825C25.7633 27.254 25.3004 26.791 24.7293 26.791C24.1583 26.791 23.6953 27.254 23.6953 27.825C23.6953 28.3961 24.1583 28.859 24.7293 28.859Z" stroke="#2D2D2D" stroke-width="1.5"/>
<path id="Path 1365" d="M27.2633 24.7218H10.3041C10.1861 24.7216 10.0719 24.6803 9.98102 24.605C9.89017 24.5298 9.82841 24.4252 9.80634 24.3093L6.26022 6.62539C6.23647 6.50904 6.17329 6.40445 6.08135 6.3293C5.98941 6.25414 5.87434 6.21302 5.75559 6.21289H2.08984" stroke="#2D2D2D" stroke-width="1.5"/>
</g>
</g>
</g>
<defs>
<clipPath id="clip0_1_364">
<rect width="33" height="33" fill="white"/>
</clipPath>
</defs>
</svg>
